<svg width="45" height="39" viewBox="0 0 45 39" fill="none" xmlns="http://www.w3.org/2000/svg">
<circle cx="25.5" cy="19.5" r="19.5" fill="#037E8C"/>
<path fill-rule="evenodd" clip-rule="evenodd" d="M11.3722 0.027871C8.71375 0.231981 6.24275 1.53353 4.5611 3.6153C3.43586 5.00836 2.58615 6.92188 2.35189 8.59047L2.30951 8.89219H5.90059H9.49167L12.3573 7.43808C13.9334 6.63825 15.2504 6.00122 15.284 6.02238C15.3176 6.04346 15.3451 6.69782 15.3451 7.47649V8.89219H18.5219H21.6989L21.6609 8.69696C21.64 8.58954 21.603 8.37393 21.5787 8.21774C21.5109 7.78106 21.3382 7.1054 21.2339 6.86884C21.1822 6.7517 21.0431 6.41405 20.9247 6.1185C20.2063 4.32504 18.7482 2.57495 17.0513 1.46928C16.2328 0.935964 14.6573 0.330237 13.742 0.196909C13.5695 0.171777 13.3499 0.122933 13.2541 0.0884294C13.0159 0.00266785 12.089 -0.0272209 11.3722 0.027871ZM11.5464 10.4989L10.0827 11.2289L6.11708 11.232L2.15136 11.235L2.19527 13.4181C2.22266 14.7788 2.27626 15.8152 2.33746 16.1691C2.4579 16.8655 2.63954 17.5885 2.76549 17.873C3.54745 19.6396 3.99848 20.3951 4.7665 21.225C5.59802 22.1234 5.75262 22.2644 6.39825 22.7127C8.25812 24.0041 9.88638 24.5265 12.0329 24.5204C14.1759 24.5143 15.734 24.0077 17.606 22.7087C18.1323 22.3435 18.5723 21.927 19.6186 20.804C20.0004 20.3941 20.5959 19.3134 21.2335 17.873C21.3594 17.5885 21.5411 16.8655 21.6615 16.1691C21.7227 15.8152 21.7763 14.7789 21.8036 13.4187L21.8476 11.2361L17.4637 11.2178L13.0798 11.1995L13.045 10.4842L13.0101 9.76898L11.5464 10.4989ZM9.94333 17.0198C10.0583 17.1166 10.1867 17.225 10.2287 17.2606C10.5409 17.5261 11.3863 17.7638 12.0243 17.7655C12.7188 17.7672 13.4959 17.5129 13.8672 17.1621C14.284 16.7686 14.2647 16.7616 15.1304 17.6159C15.6721 18.1505 15.9081 18.4305 15.88 18.5054C15.8146 18.6787 14.7946 19.4159 14.3196 19.633C13.4901 20.0122 12.8547 20.1284 11.7973 20.0944C10.9608 20.0675 10.7734 20.0374 10.2021 19.8386C9.84596 19.7147 9.39116 19.5061 9.1914 19.3751C8.67779 19.0383 8.09628 18.5576 8.09628 18.4699C8.09628 18.3779 9.56834 16.8565 9.66453 16.8491C9.70286 16.8461 9.82832 16.923 9.94333 17.0198ZM10.4138 28.0336L11.9995 29.6578L13.5852 28.0336C14.4572 27.1403 15.1137 26.4294 15.044 26.4538C14.9743 26.4782 14.5979 26.5694 14.2076 26.6564C13.5962 26.7928 13.2907 26.8147 11.9995 26.8147C10.7083 26.8147 10.4027 26.7928 9.79131 26.6564C9.40106 26.5694 9.02468 26.4782 8.95491 26.4538C8.88521 26.4294 9.54172 27.1403 10.4138 28.0336ZM4.83258 26.9302C4.51342 26.9616 4.21545 27.0156 4.17043 27.0501C4.1254 27.0847 3.94739 27.1537 3.77488 27.2035C3.13092 27.3893 2.26985 27.9096 1.73156 28.4382C0.910142 29.2447 0.518289 29.9117 0.206451 31.0341C0.0648208 31.5438 0.0545049 31.7603 0.0280189 34.7875L0 38H4.28669H8.57337L8.65757 37.7338C8.70385 37.5874 8.76505 37.4356 8.79349 37.3965C8.82199 37.3575 9.15028 36.3511 9.52304 35.1602C9.89586 33.9693 10.257 32.8671 10.3258 32.7109C10.3945 32.5547 10.5051 32.2491 10.5716 32.0317L10.6926 31.6365L8.34218 29.2452L5.99176 26.8538L5.70229 26.8635C5.5431 26.8688 5.15173 26.8988 4.83258 26.9302ZM15.6324 29.2527L13.3059 31.6351L13.4271 32.0311C13.4938 32.2488 13.6047 32.5547 13.6737 32.7109C13.7427 32.8671 14.1042 33.9693 14.477 35.1602C14.8499 36.3511 15.2193 37.4773 15.298 37.6628L15.4409 38H19.7204H24L23.9708 34.7875C23.9429 31.725 23.9343 31.5485 23.7853 31.007C23.4727 29.8709 22.8613 28.9026 21.9988 28.178C21.5343 27.7877 20.7481 27.3563 20.2241 27.2041C20.0516 27.1539 19.8761 27.0868 19.8342 27.055C19.7924 27.0231 19.463 26.9653 19.1024 26.9266C17.9062 26.7983 18.2618 26.5599 15.6324 29.2527ZM19.6665 33.5273V34.6633H17.4709H15.2754V33.5273V32.3914H17.4709H19.6665V33.5273ZM11.4993 36.5446L11.0415 38H11.9995H12.9575L12.4996 36.5446C12.2478 35.7441 12.0228 35.0892 11.9995 35.0892C11.9762 35.0892 11.7511 35.7441 11.4993 36.5446Z" fill="black"/>
</svg>
