<svg width="52" height="39" viewBox="0 0 52 39" fill="none" xmlns="http://www.w3.org/2000/svg">
<circle cx="32.5" cy="19.5" r="19.5" fill="#037E8C"/>
<path fill-rule="evenodd" clip-rule="evenodd" d="M18.9936 6.3503C18.7911 6.87271 19.477 7.45282 20.2971 7.45282C20.6012 7.45282 21.0319 7.52181 21.2543 7.60626C21.6435 7.75404 22.8765 9.87022 22.8765 10.3907C22.8765 10.5326 22.3096 10.6443 21.5897 10.6443C20.3453 10.6443 18.1601 11.4237 18.1601 11.8673C18.1601 12.1168 17.8686 12.0073 25.3589 14.5747C28.8404 15.7678 31.8842 16.8197 32.1233 16.912C32.4934 17.0549 32.5577 16.9327 32.5577 16.0874C32.5577 15.5417 32.4589 14.8393 32.3382 14.5268C32.2176 14.2143 30.9305 12.7239 29.4778 11.2148C26.5933 8.21852 25.9447 7.86427 24.5782 8.53841C24.1465 8.7515 23.7736 8.9258 23.7496 8.9258C23.7257 8.9258 23.4472 8.37908 23.1307 7.71059C22.487 6.35177 22.385 6.28794 20.5022 6.06896C19.3595 5.93615 19.1384 5.97739 18.9936 6.3503ZM3.19773 9.3208C2.82091 9.69322 3.04656 11.5533 3.61104 12.731C4.49873 14.5825 6.76015 16.5362 8.01572 16.5362C9.92464 16.5362 13.0504 18.4869 14.3144 20.4673C15.0884 21.6798 15.6777 23.7231 15.6777 25.1936C15.6777 26.7223 16.0538 26.6467 16.9966 24.9285L17.6951 23.6556H19.7872H21.8794L22.6499 25.0058C23.162 25.9031 23.579 26.356 23.893 26.356C24.2927 26.356 24.3659 26.1726 24.3659 25.1732C24.3659 22.7278 25.4465 20.348 27.315 18.6789L28.3484 17.7556L27.6603 17.4882C27.2819 17.3412 25.4085 16.6886 23.4971 16.0381C20.1847 14.9107 13.1534 12.4911 6.98952 10.3573C3.32483 9.08881 3.40898 9.11188 3.19773 9.3208ZM4.0107 18.9953C2.55853 19.6643 1.38264 20.7938 0.63744 22.2359C-0.214998 23.8849 -0.212019 26.619 0.643646 28.2888C1.8384 30.621 4.09088 31.9897 6.74128 31.9946C10.3481 32.0015 13.2279 29.4687 13.5948 25.9669C13.8785 23.2615 12.7289 20.919 10.3896 19.4345C9.31622 18.7533 8.90489 18.6433 7.14416 18.5677C5.49316 18.4967 4.92544 18.574 4.0107 18.9953ZM30.9774 18.7533C28.4087 19.514 26.3493 22.4325 26.3543 25.3048C26.3605 28.987 29.457 31.9941 33.2483 32C35.0778 32.0029 36.2018 31.5907 37.7202 30.3601C39.2958 29.0832 39.9998 27.4676 40 25.1285C40 23.5412 39.8997 23.1142 39.2722 22.0323C37.9037 19.6726 35.9091 18.5014 33.3024 18.5267C32.4149 18.5353 31.3686 18.6371 30.9774 18.7533ZM8.32998 21.7883C10.5137 22.6905 11.3001 25.595 9.86457 27.4561C8.61396 29.0776 6.88128 29.4517 5.01257 28.5041C3.6937 27.8351 3.01776 26.6845 3.01776 25.1072C3.01776 22.4507 5.77068 20.7307 8.32998 21.7883ZM35.0182 21.8875C36.2507 22.4956 36.8434 23.4265 36.9579 24.9344C37.0885 26.6558 36.4902 27.7642 35.0311 28.5041C33.1624 29.4517 31.4297 29.0776 30.1791 27.4561C29.6059 26.713 29.4724 26.292 29.4724 25.2267C29.4724 22.3616 32.4028 20.5972 35.0182 21.8875ZM5.65774 23.919C4.80257 24.584 4.7837 25.6699 5.61305 26.4898C6.35403 27.2229 6.96568 27.2521 7.81018 26.5951C8.6651 25.9301 8.82993 25.3009 8.3769 24.434C7.77443 23.2822 6.73036 23.0845 5.65774 23.919ZM32.3663 23.5743C32.1928 23.6435 31.8768 24.0327 31.664 24.4394C31.1839 25.3578 31.5327 26.3965 32.4621 26.8151C33.3237 27.2035 33.6377 27.1657 34.3859 26.5836C36.0305 25.3046 34.3417 22.7882 32.3663 23.5743Z" fill="black"/>
</svg>
