<svg width="478" height="114" viewBox="0 0 478 114" fill="none" xmlns="http://www.w3.org/2000/svg">
<path d="M79.6667 57L0 0V21L50.3158 57L0 93V114L79.6667 57Z" fill="#0057FF"/>
<path d="M239 57L159.333 0V21L209.649 57L159.333 93V114L239 57Z" fill="#0057FF"/>
<path d="M398.333 57L318.667 0V21L368.982 57L318.667 93V114L398.333 57Z" fill="#0057FF"/>
<path d="M159.333 57L79.6665 0V21L129.982 57L79.6665 93V114L159.333 57Z" fill="#0057FF"/>
<path d="M318.667 57L239 0V21L289.316 57L239 93V114L318.667 57Z" fill="#0057FF"/>
<path d="M478 57L398.333 0V21L448.649 57L398.333 93V114L478 57Z" fill="#0057FF"/>
</svg>
