<svg width="22" height="22" viewBox="0 0 22 22" fill="none" xmlns="http://www.w3.org/2000/svg">
<path d="M5.51475 4.12683C5.15616 4.12647 4.80102 4.19683 4.46966 4.33389C4.13829 4.47095 3.83722 4.67201 3.58366 4.92558C3.3301 5.17914 3.12903 5.48021 2.99197 5.81158C2.85491 6.14294 2.78455 6.49808 2.78491 6.85667C2.78491 8.90358 5.51475 11.9258 5.51475 11.9258C5.51475 11.9258 8.24458 8.90358 8.24458 6.85667C8.24494 6.49808 8.17458 6.14294 8.03752 5.81158C7.90046 5.48021 7.6994 5.17914 7.44584 4.92558C7.19228 4.67201 6.8912 4.47095 6.55984 4.33389C6.22847 4.19683 5.87333 4.12647 5.51475 4.12683ZM5.51475 7.83108C5.32202 7.83108 5.13363 7.77393 4.97339 7.66686C4.81315 7.55979 4.68825 7.40761 4.6145 7.22956C4.54075 7.05151 4.52145 6.85558 4.55905 6.66657C4.59665 6.47755 4.68946 6.30392 4.82573 6.16765C4.962 6.03137 5.13563 5.93857 5.32465 5.90097C5.51367 5.86337 5.70959 5.88267 5.88764 5.95642C6.06569 6.03017 6.21787 6.15507 6.32494 6.31531C6.43201 6.47555 6.48916 6.66394 6.48916 6.85667C6.48892 7.11502 6.38618 7.36273 6.20349 7.54541C6.02081 7.7281 5.7731 7.83084 5.51475 7.83108Z" fill="#121214"/>
<path d="M19.272 10.3547V6.413C19.2656 5.99909 19.2027 5.58799 19.085 5.19109C18.7842 4.1418 18.1186 3.23444 17.208 2.63254C16.2974 2.03064 15.2017 1.77378 14.1185 1.90824C13.0353 2.04271 12.0357 2.55966 11.2999 3.36593C10.5641 4.1722 10.1405 5.21477 10.1054 6.30575V6.53309L10.0962 7.33059V16.4533H10.0925V16.4908C10.0925 16.9771 9.89937 17.4434 9.55556 17.7872C9.21174 18.131 8.74543 18.3242 8.2592 18.3242C7.77297 18.3242 7.30665 18.131 6.96283 17.7872C6.61902 17.4434 6.42586 16.9771 6.42586 16.4908C6.42586 16.4798 6.42861 16.4688 6.42953 16.4569H6.42586V14.6758H4.59253V16.5092H4.59436C4.59497 17.4811 4.98167 18.4131 5.66939 19.0999C6.35711 19.7868 7.28951 20.1723 8.26149 20.1717C9.23346 20.1711 10.1654 19.7844 10.8522 19.0967C11.5391 18.409 11.9246 17.4766 11.924 16.5046H11.9259V15.6044H11.9304V8.24725L11.9396 6.53309V6.30667C11.9657 5.58503 12.2746 4.90261 12.7994 4.40667C13.3243 3.91074 14.0232 3.64108 14.7451 3.65588C15.4671 3.67068 16.1543 3.96876 16.6584 4.48578C17.1625 5.00281 17.4431 5.69732 17.4396 6.41942V10.3382C17.0886 10.5368 16.8129 10.8457 16.6553 11.2169C16.4977 11.5882 16.467 12.0011 16.5679 12.3916C16.6688 12.7821 16.8958 13.1284 17.2136 13.3767C17.5313 13.6251 17.9222 13.7617 18.3255 13.7653C18.7288 13.769 19.1221 13.6394 19.4443 13.3968C19.7665 13.1542 19.9996 12.8121 20.1076 12.4234C20.2155 12.0348 20.1922 11.6215 20.0413 11.2474C19.8904 10.8734 19.6203 10.5596 19.2729 10.3547H19.272Z" fill="#121214"/>
</svg>
